<mxfile host="Electron" agent="Mozilla/5.0 (Macintosh; Intel Mac OS X 10_15_7) AppleWebKit/537.36 (KHTML, like Gecko) draw.io/27.0.9 Chrome/134.0.6998.205 Electron/35.4.0 Safari/537.36" version="27.0.9">
  <diagram name="Page-1" id="o3Gryw5tLEaoZM5i-Nk4">
    <mxGraphModel dx="1517" dy="1990" grid="1" gridSize="10" guides="1" tooltips="1" connect="1" arrows="1" fold="1" page="1" pageScale="1" pageWidth="827" pageHeight="1169" math="0" shadow="0">
      <root>
        <mxCell id="0" />
        <mxCell id="1" parent="0" />
        <mxCell id="kGGtrt_OYq5mmydYBdvU-1" value="public func request() {&lt;div&gt;strategy.process()&lt;/div&gt;&lt;div&gt;}&lt;/div&gt;" style="shape=note2;boundedLbl=1;whiteSpace=wrap;html=1;size=25;verticalAlign=top;align=center;fontSize=16;strokeWidth=2;" vertex="1" parent="1">
          <mxGeometry x="160" y="314" width="240" height="110" as="geometry" />
        </mxCell>
        <mxCell id="kGGtrt_OYq5mmydYBdvU-2" value="&lt;font&gt;&amp;lt;&amp;lt;interface&amp;gt;&amp;gt;&lt;br&gt;&lt;/font&gt;&lt;b&gt;Strategy&lt;/b&gt;&lt;div&gt;&lt;b&gt;&lt;br&gt;&lt;/b&gt;&lt;/div&gt;" style="swimlane;fontStyle=0;align=center;verticalAlign=top;childLayout=stackLayout;horizontal=1;startSize=40;horizontalStack=0;resizeParent=1;resizeParentMax=0;resizeLast=0;collapsible=0;marginBottom=0;html=1;whiteSpace=wrap;fontSize=16;strokeWidth=2;swimlaneLine=0;" vertex="1" parent="1">
          <mxGeometry x="612" y="109" width="240" height="120" as="geometry" />
        </mxCell>
        <mxCell id="kGGtrt_OYq5mmydYBdvU-3" value="&lt;b&gt;ConcreteStrategy&lt;/b&gt;" style="swimlane;fontStyle=0;align=center;verticalAlign=top;childLayout=stackLayout;horizontal=1;startSize=40;horizontalStack=0;resizeParent=1;resizeParentMax=0;resizeLast=0;collapsible=0;marginBottom=0;html=1;whiteSpace=wrap;fontSize=16;strokeWidth=2;" vertex="1" parent="1">
          <mxGeometry x="612" y="334" width="240" height="70" as="geometry" />
        </mxCell>
        <mxCell id="kGGtrt_OYq5mmydYBdvU-4" value="+process()" style="text;html=1;strokeColor=none;fillColor=none;align=left;verticalAlign=middle;spacingLeft=4;spacingRight=4;overflow=hidden;rotatable=0;points=[[0,0.5],[1,0.5]];portConstraint=eastwest;whiteSpace=wrap;fontSize=16;strokeWidth=2;" vertex="1" parent="kGGtrt_OYq5mmydYBdvU-3">
          <mxGeometry y="40" width="240" height="30" as="geometry" />
        </mxCell>
        <mxCell id="kGGtrt_OYq5mmydYBdvU-5" style="edgeStyle=orthogonalEdgeStyle;rounded=0;orthogonalLoop=1;jettySize=auto;html=1;fontSize=16;strokeWidth=2;curved=1;dashed=1;endArrow=none;startFill=0;" edge="1" parent="1" source="kGGtrt_OYq5mmydYBdvU-7" target="kGGtrt_OYq5mmydYBdvU-1">
          <mxGeometry relative="1" as="geometry" />
        </mxCell>
        <mxCell id="kGGtrt_OYq5mmydYBdvU-6" style="edgeStyle=orthogonalEdgeStyle;rounded=0;orthogonalLoop=1;jettySize=auto;html=1;fontSize=16;strokeWidth=2;endArrow=open;endFill=0;startArrow=diamondThin;startFill=0;endSize=14;startSize=24;jumpSize=6;sourcePerimeterSpacing=0;" edge="1" parent="1" source="kGGtrt_OYq5mmydYBdvU-7" target="kGGtrt_OYq5mmydYBdvU-2">
          <mxGeometry relative="1" as="geometry" />
        </mxCell>
        <mxCell id="kGGtrt_OYq5mmydYBdvU-7" value="&lt;b&gt;Context&lt;/b&gt;" style="swimlane;fontStyle=0;align=center;verticalAlign=top;childLayout=stackLayout;horizontal=1;startSize=40;horizontalStack=0;resizeParent=1;resizeParentMax=0;resizeLast=0;collapsible=0;marginBottom=0;html=1;whiteSpace=wrap;fontSize=16;strokeWidth=2;" vertex="1" parent="1">
          <mxGeometry x="160" y="84" width="240" height="170" as="geometry" />
        </mxCell>
        <mxCell id="kGGtrt_OYq5mmydYBdvU-13" value="-strategy" style="rounded=0;whiteSpace=wrap;html=1;align=left;fontStyle=0;fontSize=16;" vertex="1" parent="kGGtrt_OYq5mmydYBdvU-7">
          <mxGeometry y="40" width="240" height="60" as="geometry" />
        </mxCell>
        <mxCell id="kGGtrt_OYq5mmydYBdvU-8" value="+request()" style="text;html=1;strokeColor=none;fillColor=none;align=left;verticalAlign=middle;spacingLeft=4;spacingRight=4;overflow=hidden;rotatable=0;points=[[0,0.5],[1,0.5]];portConstraint=eastwest;whiteSpace=wrap;fontSize=16;strokeWidth=2;" vertex="1" parent="kGGtrt_OYq5mmydYBdvU-7">
          <mxGeometry y="100" width="240" height="70" as="geometry" />
        </mxCell>
        <mxCell id="kGGtrt_OYq5mmydYBdvU-9" style="edgeStyle=orthogonalEdgeStyle;rounded=0;orthogonalLoop=1;jettySize=auto;html=1;exitX=0.5;exitY=0;exitDx=0;exitDy=0;fontSize=16;strokeWidth=2;dashed=1;endArrow=block;endFill=0;endSize=20;entryX=0.5;entryY=1;entryDx=0;entryDy=0;" edge="1" parent="1" source="kGGtrt_OYq5mmydYBdvU-3" target="kGGtrt_OYq5mmydYBdvU-2">
          <mxGeometry relative="1" as="geometry">
            <mxPoint x="730" y="234" as="targetPoint" />
          </mxGeometry>
        </mxCell>
        <mxCell id="kGGtrt_OYq5mmydYBdvU-10" value="&lt;span style=&quot;font-size: 16px; text-align: left; text-wrap-mode: wrap;&quot;&gt;+process()&lt;/span&gt;" style="text;html=1;align=center;verticalAlign=middle;resizable=0;points=[];autosize=1;strokeColor=none;fillColor=none;" vertex="1" parent="1">
          <mxGeometry x="605" y="180" width="100" height="30" as="geometry" />
        </mxCell>
        <mxCell id="kGGtrt_OYq5mmydYBdvU-11" value="" style="endArrow=none;startArrow=none;endFill=0;startFill=0;endSize=8;html=1;verticalAlign=bottom;labelBackgroundColor=none;strokeWidth=3;rounded=0;" edge="1" parent="1">
          <mxGeometry width="160" relative="1" as="geometry">
            <mxPoint x="610" y="174" as="sourcePoint" />
            <mxPoint x="850" y="174" as="targetPoint" />
          </mxGeometry>
        </mxCell>
        <mxCell id="kGGtrt_OYq5mmydYBdvU-12" value="&lt;font style=&quot;font-size: 16px;&quot;&gt;-strategy&lt;/font&gt;" style="text;html=1;align=center;verticalAlign=middle;resizable=0;points=[];autosize=1;strokeColor=none;fillColor=none;" vertex="1" parent="1">
          <mxGeometry x="465" y="132" width="90" height="30" as="geometry" />
        </mxCell>
        <mxCell id="kGGtrt_OYq5mmydYBdvU-14" value="&lt;h1 style=&quot;margin-top: 0px;&quot;&gt;The Strategy Design Pattern&lt;/h1&gt;&lt;p&gt;&lt;font style=&quot;font-size: 16px;&quot;&gt;&amp;nbsp;&lt;/font&gt;&lt;/p&gt;&lt;p&gt;&lt;font style=&quot;font-size: 16px;&quot;&gt;* Context exposed to clients&lt;/font&gt;&lt;/p&gt;&lt;p&gt;&lt;font style=&quot;font-size: 16px;&quot;&gt;&lt;span style=&quot;white-space: pre;&quot;&gt;&#x9;&lt;/span&gt;- Delegates client requests to Strategy object&amp;nbsp;&lt;/font&gt;&lt;/p&gt;&lt;p&gt;&lt;font style=&quot;font-size: 16px;&quot;&gt;&lt;span style=&quot;white-space: pre;&quot;&gt;&#x9;&lt;/span&gt;- Holds a reference to a concrete Strategy&lt;br&gt;&lt;/font&gt;&lt;/p&gt;&lt;p&gt;&lt;font style=&quot;font-size: 16px;&quot;&gt;&lt;br&gt;&lt;/font&gt;&lt;/p&gt;&lt;p&gt;&lt;font style=&quot;font-size: 16px;&quot;&gt;* Strategy protocol&lt;/font&gt;&lt;/p&gt;&lt;p&gt;&lt;font style=&quot;font-size: 16px;&quot;&gt;&lt;span style=&quot;white-space: pre;&quot;&gt;&#x9;&lt;/span&gt;- Defines the interface for concrete algorithms&lt;br&gt;&lt;/font&gt;&lt;/p&gt;&lt;p&gt;&lt;font style=&quot;font-size: 16px;&quot;&gt;&lt;br&gt;&lt;/font&gt;&lt;/p&gt;&lt;p&gt;&lt;span style=&quot;font-size: 16px;&quot;&gt;Concrete Strategy&lt;/span&gt;&lt;/p&gt;&lt;p&gt;&lt;span style=&quot;font-size: 16px;&quot;&gt;&lt;span style=&quot;white-space: pre;&quot;&gt;&#x9;&lt;/span&gt;- Type that implements a specific algorithm&lt;br&gt;&lt;/span&gt;&lt;/p&gt;" style="text;html=1;whiteSpace=wrap;overflow=hidden;rounded=0;" vertex="1" parent="1">
          <mxGeometry x="160" y="-400" width="680" height="380" as="geometry" />
        </mxCell>
        <mxCell id="kGGtrt_OYq5mmydYBdvU-15" value="aClient" style="html=1;whiteSpace=wrap;fontStyle=1;fontSize=15;" vertex="1" parent="1">
          <mxGeometry x="160" y="600" width="160" height="50" as="geometry" />
        </mxCell>
        <mxCell id="kGGtrt_OYq5mmydYBdvU-16" value="aStrategyB" style="html=1;whiteSpace=wrap;fontStyle=1;fontSize=15;" vertex="1" parent="1">
          <mxGeometry x="841" y="930" width="160" height="50" as="geometry" />
        </mxCell>
        <mxCell id="kGGtrt_OYq5mmydYBdvU-17" value="aContext" style="html=1;whiteSpace=wrap;fontStyle=1;fontSize=15;" vertex="1" parent="1">
          <mxGeometry x="409.5" y="750" width="161" height="50" as="geometry" />
        </mxCell>
        <mxCell id="kGGtrt_OYq5mmydYBdvU-18" value="aStrategyA" style="html=1;whiteSpace=wrap;fontStyle=1;fontSize=15;" vertex="1" parent="1">
          <mxGeometry x="642" y="670" width="160" height="50" as="geometry" />
        </mxCell>
        <mxCell id="kGGtrt_OYq5mmydYBdvU-19" value="" style="endArrow=none;dashed=1;html=1;rounded=0;entryX=0.5;entryY=1;entryDx=0;entryDy=0;" edge="1" parent="1" target="kGGtrt_OYq5mmydYBdvU-15">
          <mxGeometry width="50" height="50" relative="1" as="geometry">
            <mxPoint x="240" y="1240" as="sourcePoint" />
            <mxPoint x="560" y="880" as="targetPoint" />
          </mxGeometry>
        </mxCell>
        <mxCell id="kGGtrt_OYq5mmydYBdvU-22" value="" style="endArrow=none;dashed=1;html=1;rounded=0;entryX=0.5;entryY=1;entryDx=0;entryDy=0;" edge="1" parent="1">
          <mxGeometry width="50" height="50" relative="1" as="geometry">
            <mxPoint x="490" y="1240" as="sourcePoint" />
            <mxPoint x="489.5" y="800" as="targetPoint" />
          </mxGeometry>
        </mxCell>
        <mxCell id="kGGtrt_OYq5mmydYBdvU-20" value="" style="html=1;points=[[0,0,0,0,5],[0,1,0,0,-5],[1,0,0,0,5],[1,1,0,0,-5]];perimeter=orthogonalPerimeter;outlineConnect=0;targetShapes=umlLifeline;portConstraint=eastwest;newEdgeStyle={&quot;curved&quot;:0,&quot;rounded&quot;:0};fontSize=14;" vertex="1" parent="1">
          <mxGeometry x="480" y="840" width="20" height="40" as="geometry" />
        </mxCell>
        <mxCell id="kGGtrt_OYq5mmydYBdvU-21" value="1: &amp;lt;&amp;lt; Create&amp;gt;&amp;gt;" style="html=1;verticalAlign=bottom;endArrow=block;curved=0;rounded=0;entryX=0;entryY=0.5;entryDx=0;entryDy=0;fontSize=14;" edge="1" parent="1" target="kGGtrt_OYq5mmydYBdvU-18">
          <mxGeometry relative="1" as="geometry">
            <mxPoint x="240" y="695" as="sourcePoint" />
            <mxPoint x="450" y="695" as="targetPoint" />
          </mxGeometry>
        </mxCell>
        <mxCell id="kGGtrt_OYq5mmydYBdvU-23" value="" style="endArrow=none;dashed=1;html=1;rounded=0;entryX=0.5;entryY=1;entryDx=0;entryDy=0;" edge="1" parent="1" source="kGGtrt_OYq5mmydYBdvU-26">
          <mxGeometry width="50" height="50" relative="1" as="geometry">
            <mxPoint x="721.5" y="1422" as="sourcePoint" />
            <mxPoint x="721.5" y="720" as="targetPoint" />
          </mxGeometry>
        </mxCell>
        <mxCell id="kGGtrt_OYq5mmydYBdvU-24" value="" style="endArrow=none;dashed=1;html=1;rounded=0;entryX=0.5;entryY=1;entryDx=0;entryDy=0;" edge="1" parent="1" source="kGGtrt_OYq5mmydYBdvU-28">
          <mxGeometry width="50" height="50" relative="1" as="geometry">
            <mxPoint x="920.5" y="1682" as="sourcePoint" />
            <mxPoint x="920.5" y="980" as="targetPoint" />
          </mxGeometry>
        </mxCell>
        <mxCell id="kGGtrt_OYq5mmydYBdvU-25" value="" style="endArrow=none;dashed=1;html=1;rounded=0;entryX=0.5;entryY=1;entryDx=0;entryDy=0;" edge="1" parent="1" target="kGGtrt_OYq5mmydYBdvU-26">
          <mxGeometry width="50" height="50" relative="1" as="geometry">
            <mxPoint x="720" y="1240" as="sourcePoint" />
            <mxPoint x="721.5" y="720" as="targetPoint" />
          </mxGeometry>
        </mxCell>
        <mxCell id="kGGtrt_OYq5mmydYBdvU-26" value="" style="html=1;points=[[0,0,0,0,5],[0,1,0,0,-5],[1,0,0,0,5],[1,1,0,0,-5]];perimeter=orthogonalPerimeter;outlineConnect=0;targetShapes=umlLifeline;portConstraint=eastwest;newEdgeStyle={&quot;curved&quot;:0,&quot;rounded&quot;:0};fontSize=14;" vertex="1" parent="1">
          <mxGeometry x="712" y="847" width="20" height="60" as="geometry" />
        </mxCell>
        <mxCell id="kGGtrt_OYq5mmydYBdvU-27" value="" style="endArrow=none;dashed=1;html=1;rounded=0;entryX=0.5;entryY=1;entryDx=0;entryDy=0;" edge="1" parent="1" target="kGGtrt_OYq5mmydYBdvU-28">
          <mxGeometry width="50" height="50" relative="1" as="geometry">
            <mxPoint x="921" y="1240" as="sourcePoint" />
            <mxPoint x="920.5" y="980" as="targetPoint" />
          </mxGeometry>
        </mxCell>
        <mxCell id="kGGtrt_OYq5mmydYBdvU-28" value="" style="html=1;points=[[0,0,0,0,5],[0,1,0,0,-5],[1,0,0,0,5],[1,1,0,0,-5]];perimeter=orthogonalPerimeter;outlineConnect=0;targetShapes=umlLifeline;portConstraint=eastwest;newEdgeStyle={&quot;curved&quot;:0,&quot;rounded&quot;:0};fontSize=14;" vertex="1" parent="1">
          <mxGeometry x="911" y="1156" width="20" height="60" as="geometry" />
        </mxCell>
        <mxCell id="kGGtrt_OYq5mmydYBdvU-36" value="4: Execute algorithm" style="html=1;verticalAlign=bottom;endArrow=block;curved=0;rounded=0;entryX=0;entryY=0;entryDx=0;entryDy=5;entryPerimeter=0;fontSize=14;" edge="1" parent="1">
          <mxGeometry relative="1" as="geometry">
            <mxPoint x="500" y="850" as="sourcePoint" />
            <mxPoint x="710" y="849.5" as="targetPoint" />
          </mxGeometry>
        </mxCell>
        <mxCell id="kGGtrt_OYq5mmydYBdvU-39" value="" style="html=1;points=[[0,0,0,0,5],[0,1,0,0,-5],[1,0,0,0,5],[1,1,0,0,-5]];perimeter=orthogonalPerimeter;outlineConnect=0;targetShapes=umlLifeline;portConstraint=eastwest;newEdgeStyle={&quot;curved&quot;:0,&quot;rounded&quot;:0};fontSize=14;" vertex="1" parent="1">
          <mxGeometry x="480" y="1030" width="20" height="40" as="geometry" />
        </mxCell>
        <mxCell id="kGGtrt_OYq5mmydYBdvU-40" value="5: &amp;lt;&amp;lt; Create&amp;gt;&amp;gt;" style="html=1;verticalAlign=bottom;endArrow=open;curved=0;rounded=0;entryX=0;entryY=0.5;entryDx=0;entryDy=0;fontSize=14;dashed=1;endFill=0;" edge="1" parent="1" target="kGGtrt_OYq5mmydYBdvU-16">
          <mxGeometry relative="1" as="geometry">
            <mxPoint x="240" y="955" as="sourcePoint" />
            <mxPoint x="450" y="965" as="targetPoint" />
          </mxGeometry>
        </mxCell>
        <mxCell id="kGGtrt_OYq5mmydYBdvU-46" value="" style="html=1;points=[[0,0,0,0,5],[0,1,0,0,-5],[1,0,0,0,5],[1,1,0,0,-5]];perimeter=orthogonalPerimeter;outlineConnect=0;targetShapes=umlLifeline;portConstraint=eastwest;newEdgeStyle={&quot;curved&quot;:0,&quot;rounded&quot;:0};fontSize=14;" vertex="1" parent="1">
          <mxGeometry x="480" y="1146" width="20" height="40" as="geometry" />
        </mxCell>
        <mxCell id="kGGtrt_OYq5mmydYBdvU-47" value="6: Apply StrategyB" style="html=1;verticalAlign=bottom;endArrow=block;curved=0;rounded=0;entryX=0;entryY=0;entryDx=0;entryDy=5;entryPerimeter=0;fontSize=14;" edge="1" parent="1" target="kGGtrt_OYq5mmydYBdvU-39">
          <mxGeometry relative="1" as="geometry">
            <mxPoint x="240" y="1035" as="sourcePoint" />
            <mxPoint x="450" y="1135" as="targetPoint" />
          </mxGeometry>
        </mxCell>
        <mxCell id="kGGtrt_OYq5mmydYBdvU-50" value="8: Execute Algorithm" style="html=1;verticalAlign=bottom;endArrow=block;curved=0;rounded=0;fontSize=14;" edge="1" parent="1">
          <mxGeometry relative="1" as="geometry">
            <mxPoint x="500" y="1158" as="sourcePoint" />
            <mxPoint x="910" y="1160" as="targetPoint" />
          </mxGeometry>
        </mxCell>
        <mxCell id="kGGtrt_OYq5mmydYBdvU-53" value="&amp;lt;&amp;lt; Create&amp;gt;&amp;gt;&lt;div&gt;2: Pass StrategyA instance&lt;/div&gt;" style="html=1;verticalAlign=bottom;endArrow=block;curved=0;rounded=0;entryX=0.009;entryY=0.64;entryDx=0;entryDy=0;fontSize=14;entryPerimeter=0;" edge="1" parent="1" target="kGGtrt_OYq5mmydYBdvU-17">
          <mxGeometry relative="1" as="geometry">
            <mxPoint x="240" y="780" as="sourcePoint" />
            <mxPoint x="642" y="780" as="targetPoint" />
          </mxGeometry>
        </mxCell>
        <mxCell id="kGGtrt_OYq5mmydYBdvU-54" value="&lt;br&gt;&lt;div&gt;3: Request&lt;/div&gt;" style="html=1;verticalAlign=bottom;endArrow=block;curved=0;rounded=0;entryX=0;entryY=0;entryDx=0;entryDy=5;fontSize=14;entryPerimeter=0;" edge="1" parent="1" target="kGGtrt_OYq5mmydYBdvU-20">
          <mxGeometry relative="1" as="geometry">
            <mxPoint x="240" y="845" as="sourcePoint" />
            <mxPoint x="409.5" y="840" as="targetPoint" />
          </mxGeometry>
        </mxCell>
        <mxCell id="kGGtrt_OYq5mmydYBdvU-55" value="7: Request" style="html=1;verticalAlign=bottom;endArrow=block;curved=0;rounded=0;entryX=0;entryY=0;entryDx=0;entryDy=5;entryPerimeter=0;fontSize=14;" edge="1" parent="1">
          <mxGeometry relative="1" as="geometry">
            <mxPoint x="240" y="1146" as="sourcePoint" />
            <mxPoint x="480" y="1146" as="targetPoint" />
          </mxGeometry>
        </mxCell>
        <mxCell id="kGGtrt_OYq5mmydYBdvU-57" value="The Strategy Design Pattern in Action" style="text;html=1;align=center;verticalAlign=middle;resizable=0;points=[];autosize=1;strokeColor=none;fillColor=none;fontStyle=1;fontSize=24;" vertex="1" parent="1">
          <mxGeometry x="160" y="520" width="420" height="40" as="geometry" />
        </mxCell>
      </root>
    </mxGraphModel>
  </diagram>
</mxfile>
